<?xml version="1.0" encoding="utf-8"?>
<!-- Generator: Adobe Illustrator 23.0.3, SVG Export Plug-In . SVG Version: 6.00 Build 0)  -->
<svg version="1.1" id="Layer_1" xmlns="http://www.w3.org/2000/svg" xmlns:xlink="http://www.w3.org/1999/xlink" x="0px" y="0px"
	 viewBox="0 0 1024 1024" style="enable-background:new 0 0 1024 1024;" xml:space="preserve">
<style type="text/css">
	.st0{fill:#324186;}
	.st1{fill:#414042;}
	.st2{fill:#FEBF10;}
	.st3{fill:#F8991D;}
	.st4{fill:#F26722;}
</style>
<g>
	<path class="st0" d="M254.7,726.5L234,830.4h-7.6l20.8-103.9H254.7z"/>
	<path class="st0" d="M256.4,830.4l15.3-76.3h6.2l-3.1,22.8c12-15.2,24.3-22.8,37.1-22.8c14.2,0,19.8,7.4,16.9,22.2l-10.8,54.1h-7.6
		l10.8-54.1c2-10.2-1.6-15.3-11-15.3c-12.5,0-24.9,8.1-36.9,24.2l-9.1,45.3H256.4z"/>
	<path class="st0" d="M413.3,754.1L398,830.4h-6.2l3.1-22.8c-12,15.2-24.8,22.8-38.5,22.8c-13.2,0-18.4-7.4-15.4-22.2l10.8-54.1h7.6
		l-10.8,54.1c-2,10.2,1.1,15.3,9.5,15.3c13.5,0,26.3-8.1,38.4-24.2l9.1-45.3H413.3z"/>
	<path class="st0" d="M524.9,830.4l20.8-103.9H590c19.8,0,28,8.1,24.8,24.2c-2.3,11.8-11.2,20.3-26.5,25.4
		c14.7,2.6,20.7,10.7,18,24.3c-4,20-16.9,30-38.5,30H524.9z M568.2,823.9c16.8,0,26.7-7.8,29.8-23.3c2.8-13.7-6.3-20.6-27.3-20.6
		h-5.8l1-5.2c24.7-2.2,38.3-10.1,41.1-23.7c2.4-12.1-3.8-18.2-18.7-18.2H552l-18.2,90.8H568.2z"/>
	<path class="st0" d="M647,726.5l-20.8,103.9h-7.6l20.8-103.9H647z"/>
	<path class="st0" d="M650.4,792.3c5.2-25.9,19.2-38.9,41.9-38.9c22.8,0,31.6,13,26.4,38.9c-5.2,25.9-19.2,38.8-41.9,38.8
		C654.2,831.1,645.4,818.1,650.4,792.3z M678.1,824.6c17.7,0,28.7-10.9,33.1-32.6c4.3-21.4-2.4-32-20.1-32
		c-17.7,0-28.7,10.7-32.9,32C653.8,813.7,660.5,824.6,678.1,824.6z"/>
	<path class="st0" d="M784.9,830.4c-3.7,18.4-16.7,27.6-39.2,27.6c-9.4,0-17.5-1.2-24.3-3.6l1.3-6.5c6.9,2.4,15.1,3.6,24.4,3.6
		c17.2,0,27.3-7,30.1-21.1l3.6-18.2c-10.1,12.1-20.8,18.2-32.3,18.2c-17.3,0-23.5-12.6-18.5-37.9c5.1-25.6,19.5-38.4,43-38.4
		c10.3,0,19.1,1,26.4,3.1L784.9,830.4z M790.8,762.7c-6.3-1.2-12.8-1.7-19.6-1.7c-18.2,0-29.3,10.5-33.5,31.5
		c-4.1,20.5,0,30.7,12.5,30.7c11.8,0,22.6-6.2,32.3-18.5L790.8,762.7z"/>
	<path class="st1" d="M226,557.7c1.1,16.2,2.6,32.4,6.4,48.2c0.2,0.8,0.3,1.4,0.2,1.9l0.1,0c0,0,151.5,68.6,284.5-6.3l6.3-0.7
		c-1.1,0.1-2.1,0.1-2.9,0.2c-2.5,0.1-4.4-0.6-6.5-2c-21.5-15.4-43.1-30.8-64.7-46.1c-1.7-1.2-2.4-2.8-2.8-4.6
		c-10.5-42.6-20.9-85.2-31.4-127.8c-1.8-7.5-3.6-15.1-5.6-22.6c-0.7-2.5-0.3-4.3,1.2-6.1c0.9-1.1,1.5-2.5,2.5-3.4
		c4.2-3.7,3.4-7.8,1.3-12.1c-3.1-6.4-7.1-12.3-11.9-17.4c-2.5-2.7-3.9-5.6-4.5-9.2c-3.2-18.5-6.6-37-9.9-55.6
		c-1.1-6.5,1.3-12.6,2.4-18.8c4.2-22,6.2-44.1,0.8-66.2c-2.4-9.9-5.4-19.7-9.8-29c-3.7-7.8-9.7-12.2-18.3-13.1
		c-7.1-0.7-14.3-1.2-21.5-1.1c-7.6,0.1-12.2,4.5-13,12.1c-0.7,7.7,1.1,15,3.6,22.1c4.6,13.1,11.1,25.4,16.5,38.2
		c8,18.8,16.5,37.4,24.4,56.3c3.7,8.7,5,18.1,7.3,27.2c3.4,13.7,6.7,27.4,10,41.1c0.4,1.7,1.1,3.1-1.7,3.9c-2.7,0.8-1.4,2.8-0.1,4.1
		c2.4,2.3,5.3,4.3,5.6,8.2c0.1,1.6,0.3,3-0.8,4.3c-9.9,12.9-20.4,25.3-32.9,35.8c-6.2,5.2-4.8,4.4-9.9-0.9c-4.9-5-9.9-9.7-16.3-12.8
		c-10.9-5.2-24.2-3.1-32.6,5.5c-9.4,9.5-16.1,20.6-18.1,34c-1,6.8-3.9,10.4-10.9,12.4c-13.4,3.8-25.9,10-36.5,19.3
		c-8.5,7.5-12.9,16.4-12.4,28.2C225.2,522.4,224.8,540,226,557.7z M335.8,484.2c2.9-2.3,6.2-4.3,8.9-7c3.2-3.2,5.1-6.8,4.3-11.4
		c-0.4-2.4,0.7-3.4,2.7-4.2c4.8-2,9.5-4,14.3-6c5.1-2.2,9-5.6,11.9-10.5c6.9-11.6,14.1-23.1,21.2-34.6c0.6-1,1.2-2,2.4-3.8
		c2.5,10.5,4.8,20.1,7,29.6c8.1,34.6,16.2,69.1,24.4,103.7c0.6,2.5,0.5,3.5-2.5,3.5c-5,0-9.2,2.6-13.4,5c-4.5,2.7-9,5.6-13.5,8.4
		c-1.6,1-3.2,1.5-5.3,0.5c-18.1-8.8-36.2-17.6-52.9-28.8c-1.7-1.1-3.3-2.3-4.8-3.6c-3.4-2.6-6-5.6-6.8-10.3
		c-0.6-3.5-2.6-6.8-3.8-10.2C326.9,496,328.7,489.8,335.8,484.2z"/>
	<path class="st1" d="M764.5,465.1c-2.6-0.8-5.7,1.3-6.9,4.8l-35.1,104.4c-0.1,0-0.3,0-0.4,0l-134.4-0.1c-4.3,0-7.8,3.5-7.8,7.8
		c0,4.1,3.2,7.5,7.2,7.8c0.2,0,0.4,0,0.6,0l134.4,0.1c0.5,0,1-0.1,1.5-0.2c2.2,0,4.5-1.8,5.7-4.5c0.1-0.1,0.1-0.3,0.2-0.4l37.7-112
		C768.3,469.3,767.1,465.9,764.5,465.1z"/>
	<path class="st2" d="M993.7,595.7c-0.1-0.1-0.1-0.2-0.2-0.3c-11.6-13.9-135.5-20.6-197-23.6c-2.2,16-45.6,28.3-62.2,28.3H183
		c-16.6,0-30.3-12.3-32.4-28.3c-60.8,3-108,9.8-119.5,23.6c-0.1,0.1-0.1,0.2-0.2,0.2c-5.8,7-4.9,17.4,1.9,23.4
		c13.6,12,30.8,24.6,51.7,35.3c50.7,26,96.7,27.4,142.8,28.2c93.8,1.7,176.3,1.4,246.7,0.1c70.4,1.3,152.9,1.6,246.7-0.1
		c46.2-0.8,168.7-2.2,219.4-28.2c20.9-10.7,38.1-23.3,51.7-35.3C998.6,613.1,999.5,602.7,993.7,595.7z"/>
	<path class="st3" d="M240.1,599.9l41.6,83.4l197-0.5c0,0-54.5-22.7-47.6-82.9H240.1z"/>
	<path class="st4" d="M272.3,599.9c0,0-18.4,53.7,32.8,83.8c0,0-126.5-1-129.4-3.4c-2.9-2.4-65.2,2.5-139.4-58.2
		c0,0-5.5-2.9-10-16.4c0,0-1.6-12.1,15.8-17.7c17.4-5.5,36.5-12.4,108.5-16.1c0.3,2,0.8,4.8,2.1,7.9c0,0,3.7,9.1,12.1,15.1
		c9.8,6.9,21.8,6,27.2,5.7C211,599.3,237.4,599.3,272.3,599.9z"/>
	<path class="st0" d="M478,754h-8.2c-3.1,10-16.9,37.6-39.4,43.1l14.1-70.6h-7.6l-20.8,103.9h7.6l5.7-28.3l26.2,28.3h10.6l-27.7-30
		C461.4,794.1,473.7,765.9,478,754z"/>
</g>
</svg>
